<?xml version="1.0" standalone="no"?>
<!DOCTYPE svg PUBLIC "-//W3C//DTD SVG 20010904//EN"
 "http://www.w3.org/TR/2001/REC-SVG-20010904/DTD/svg10.dtd">
<svg version="1.0" xmlns="http://www.w3.org/2000/svg"
 width="564.000000pt" height="564.000000pt" viewBox="0 0 564.000000 564.000000"
 preserveAspectRatio="xMidYMid meet">

<g transform="translate(0.000000,564.000000) scale(0.100000,-0.100000)"
fill="#000000" stroke="none">
<path d="M1468 4031 c-31 -9 -58 -46 -58 -77 0 -95 -7 -94 503 -94 424 0 435
0 461 -21 39 -31 37 -88 -5 -123 l-31 -26 -689 0 c-673 0 -689 0 -709 -20 -43
-43 -34 -110 20 -137 20 -10 249 -13 1043 -13 l1018 0 24 -25 c37 -36 34 -86
-6 -119 l-31 -26 -1289 0 -1290 0 -24 -25 c-40 -39 -28 -111 22 -134 17 -8
331 -11 1094 -11 l1070 0 24 -25 c34 -33 34 -87 0 -120 l-24 -25 -701 0 -702
0 -29 -29 c-38 -38 -38 -74 0 -112 l29 -29 407 0 c453 0 448 1 461 -67 8 -41
-8 -76 -43 -92 -16 -7 -117 -11 -294 -11 -275 0 -298 -3 -326 -39 -37 -47 7
-130 70 -131 l27 0 0 -150 0 -150 255 0 c241 0 255 1 255 18 0 34 61 141 105
186 162 162 418 163 578 4 46 -46 107 -154 107 -190 0 -17 37 -18 645 -18 407
0 645 4 645 10 0 39 49 129 100 184 120 127 282 166 444 106 108 -41 211 -150
237 -251 l13 -49 238 0 238 0 0 343 0 343 -366 382 -365 382 -380 0 -379 0 0
-590 0 -590 -50 0 -50 0 -2 780 -3 780 -1137 3 c-626 1 -1144 0 -1150 -2z
m3143 -578 c24 -27 142 -151 263 -278 121 -126 233 -245 250 -262 l30 -33
-557 0 -557 0 0 310 0 310 263 0 264 0 44 -47z"/>
<path d="M2283 2404 c-60 -22 -127 -86 -160 -152 -23 -47 -28 -70 -27 -132 0
-126 55 -214 166 -270 113 -56 247 -37 337 48 75 72 96 120 96 222 0 76 -3 91
-30 139 -37 66 -102 125 -162 145 -57 20 -164 19 -220 0z m176 -215 c25 -24
35 -60 27 -94 -18 -70 -103 -89 -157 -36 -37 37 -38 79 -4 120 37 43 94 47
134 10z"/>
<path d="M4354 2397 c-117 -56 -177 -149 -177 -272 0 -127 56 -220 165 -274
110 -55 242 -39 333 41 25 22 58 64 73 92 23 44 27 63 27 136 0 95 -19 146
-78 208 -60 64 -111 86 -206 90 -75 3 -93 0 -137 -21z m191 -213 c56 -60 16
-154 -64 -154 -58 0 -96 35 -96 88 0 59 34 92 92 92 35 0 49 -6 68 -26z"/>
</g>
</svg>
